<svg width="21" height="20" viewBox="0 0 21 20" fill="none" xmlns="http://www.w3.org/2000/svg">
<path d="M0.599609 0.706991C0.599609 0.519486 0.674096 0.339659 0.806682 0.207073C0.939269 0.0744862 1.11909 0 1.3066 0H1.92593C2.95389 0 3.54494 0.668814 3.88712 1.33621C4.12043 1.79293 4.28869 2.35004 4.42867 2.83362H18.9856C19.2041 2.83369 19.4196 2.88438 19.6152 2.98173C19.8108 3.07907 19.9812 3.22042 20.113 3.39468C20.2448 3.56894 20.3344 3.77137 20.3748 3.98609C20.4152 4.2008 20.4053 4.42196 20.3459 4.63221L18.2306 12.091C18.0623 12.6827 17.7056 13.2035 17.2147 13.5742C16.7237 13.945 16.1253 14.1456 15.5101 14.1455H8.32844C7.70809 14.1457 7.10488 13.9419 6.61175 13.5656C6.11861 13.1892 5.76291 12.6611 5.59945 12.0627L4.69168 8.73276L4.67754 8.68751L3.22113 3.7414L3.07974 3.26489C2.93834 2.77565 2.81391 2.34297 2.62726 1.97958C2.40244 1.54124 2.196 1.41398 1.92593 1.41398H1.3066C1.11909 1.41398 0.939269 1.3395 0.806682 1.20691C0.674096 1.07432 0.599609 0.894497 0.599609 0.706991ZM6.04061 8.30573L6.96395 11.6936C7.04581 11.9927 7.22371 12.2566 7.47027 12.4446C7.71682 12.6327 8.01836 12.7345 8.32844 12.7343H15.5115C15.8189 12.734 16.1179 12.6335 16.3631 12.448C16.6083 12.2625 16.7864 12.0021 16.8703 11.7064L18.9856 4.2476H4.8458L6.04061 8.30573ZM10.5017 17.679C10.5017 18.2415 10.2783 18.781 9.88051 19.1788C9.48275 19.5765 8.94327 19.8 8.38076 19.8C7.81824 19.8 7.27876 19.5765 6.881 19.1788C6.48324 18.781 6.25978 18.2415 6.25978 17.679C6.25978 17.1165 6.48324 16.577 6.881 16.1793C7.27876 15.7815 7.81824 15.5581 8.38076 15.5581C8.94327 15.5581 9.48275 15.7815 9.88051 16.1793C10.2783 16.577 10.5017 17.1165 10.5017 17.679ZM9.08775 17.679C9.08775 17.4915 9.01326 17.3117 8.88068 17.1791C8.74809 17.0465 8.56826 16.972 8.38076 16.972C8.19325 16.972 8.01342 17.0465 7.88084 17.1791C7.74825 17.3117 7.67377 17.4915 7.67377 17.679C7.67377 17.8665 7.74825 18.0464 7.88084 18.1789C8.01342 18.3115 8.19325 18.386 8.38076 18.386C8.56826 18.386 8.74809 18.3115 8.88068 18.1789C9.01326 18.0464 9.08775 17.8665 9.08775 17.679ZM17.5716 17.679C17.5716 18.2415 17.3482 18.781 16.9504 19.1788C16.5527 19.5765 16.0132 19.8 15.4507 19.8C14.8882 19.8 14.3487 19.5765 13.9509 19.1788C13.5532 18.781 13.3297 18.2415 13.3297 17.679C13.3297 17.1165 13.5532 16.577 13.9509 16.1793C14.3487 15.7815 14.8882 15.5581 15.4507 15.5581C16.0132 15.5581 16.5527 15.7815 16.9504 16.1793C17.3482 16.577 17.5716 17.1165 17.5716 17.679ZM16.1577 17.679C16.1577 17.4915 16.0832 17.3117 15.9506 17.1791C15.818 17.0465 15.6382 16.972 15.4507 16.972C15.2632 16.972 15.0833 17.0465 14.9508 17.1791C14.8182 17.3117 14.7437 17.4915 14.7437 17.679C14.7437 17.8665 14.8182 18.0464 14.9508 18.1789C15.0833 18.3115 15.2632 18.386 15.4507 18.386C15.6382 18.386 15.818 18.3115 15.9506 18.1789C16.0832 18.0464 16.1577 17.8665 16.1577 17.679Z" fill="#778082"/>
</svg>
