<svg width="68" height="37" viewBox="0 0 68 37" fill="none" xmlns="http://www.w3.org/2000/svg">
<path fill-rule="evenodd" clip-rule="evenodd" d="M33.5124 10.7356L25.6855 17.1636C26.41 21.39 29.2566 23.6669 33.5284 23.5876V23.5837C37.7914 23.657 40.6506 21.3931 41.3741 17.172L33.5284 10.7314V10.7224L33.5229 10.7269L33.5124 10.7183V10.7356Z" fill="#A6A610" fill-opacity="0.8"/>
<path fill-rule="evenodd" clip-rule="evenodd" d="M25.8529 17.3871C25.7891 17.439 25.6942 17.3874 25.6994 17.3053C26.2173 9.16893 27.3729 5.43615 33.3705 0.105225C33.4199 0.0613251 33.4938 0.0804043 33.5198 0.132713C33.5458 0.0804005 33.6198 0.0613155 33.6691 0.105213C39.6671 5.43645 40.841 9.18747 41.3591 17.3241C41.3644 17.4063 41.2695 17.4578 41.2056 17.4059L33.5453 11.1819C33.5344 11.173 33.5258 11.162 33.5198 11.1497C33.5139 11.162 33.5052 11.1731 33.4944 11.1819L25.8529 17.3871Z" fill="#D9D95A"/>
<rect x="33.2266" y="25.7676" width="18.5598" height="0.6804" rx="0.3402" transform="rotate(-90 33.2266 25.7676)" fill="#004000"/>
<path fill-rule="evenodd" clip-rule="evenodd" d="M54.4824 20.8614L45.0016 17.297C41.7037 20.0376 41.1551 23.6413 43.3597 27.3011L43.3625 27.2995C45.4305 31.0282 48.8209 32.3726 52.8383 30.8886L54.4932 20.8732L54.5012 20.8685L54.4944 20.866L54.4965 20.8533L54.4824 20.8614Z" fill="#265C26"/>
<path fill-rule="evenodd" clip-rule="evenodd" d="M44.8914 17.5533C44.8145 17.5239 44.8117 17.416 44.8855 17.3794C52.1907 13.7597 56.0012 12.8941 63.6167 15.4228C63.6794 15.4436 63.6998 15.5171 63.6676 15.5658C63.7259 15.5621 63.7795 15.6166 63.7661 15.6813C62.1481 23.5413 59.4866 26.4334 52.6991 30.9505C52.6306 30.9961 52.5385 30.9397 52.5515 30.8584L54.1115 21.1124C54.1137 21.0986 54.1189 21.0856 54.1266 21.0743C54.1129 21.0753 54.0991 21.0734 54.086 21.0684L44.8914 17.5533Z" fill="#467446"/>
<rect x="41.3242" y="28.1321" width="18.5598" height="0.6804" rx="0.3402" transform="rotate(-30 41.3242 28.1321)" fill="#004000"/>
<path fill-rule="evenodd" clip-rule="evenodd" d="M13.1398 22.3319L14.7933 32.3251C18.8157 33.8109 22.2108 32.4841 24.2781 28.745L24.2748 28.743C26.4702 25.0877 25.9393 21.4792 22.6453 18.7419L13.1438 22.3166L13.1365 22.3124L13.1376 22.3189L13.1253 22.3235L13.1398 22.3319Z" fill="#265C26"/>
<path fill-rule="evenodd" clip-rule="evenodd" d="M15.0709 32.2921C15.0838 32.3734 14.9918 32.4298 14.9233 32.3842C8.13589 27.8675 5.48103 25.0003 3.86312 17.1408C3.8498 17.0761 3.90323 17.0216 3.9615 17.0252C3.92923 16.9765 3.94966 16.903 4.01236 16.8822C11.6283 14.3534 15.4637 15.2123 22.7694 18.8319C22.8431 18.8684 22.8403 18.9764 22.7634 19.0058L13.5431 22.5278C13.53 22.5328 13.5162 22.5347 13.5026 22.5338C13.5103 22.5451 13.5155 22.558 13.5177 22.5719L15.0709 32.2921Z" fill="#467446"/>
<rect x="26.0117" y="30.0989" width="18.5598" height="0.6804" rx="0.3402" transform="rotate(-150 26.0117 30.0989)" fill="#004000"/>
</svg>
