<svg width="138" height="39" viewBox="0 0 138 39" fill="none" xmlns="http://www.w3.org/2000/svg">
<path fill-rule="evenodd" clip-rule="evenodd" d="M33.5124 11.7356L25.6855 18.1636C26.41 22.39 29.2566 24.6669 33.5284 24.5876V24.5837C37.7914 24.657 40.6506 22.3931 41.3741 18.172L33.5284 11.7314V11.7224L33.5229 11.7269L33.5124 11.7183V11.7356Z" fill="#A6A610" fill-opacity="0.8"/>
<path fill-rule="evenodd" clip-rule="evenodd" d="M25.8529 18.3871C25.7891 18.439 25.6942 18.3874 25.6994 18.3053C26.2173 10.1689 27.3729 6.43615 33.3705 1.10522C33.4199 1.06133 33.4938 1.0804 33.5198 1.13271C33.5458 1.0804 33.6198 1.06132 33.6691 1.10521C39.6671 6.43645 40.841 10.1875 41.3591 18.3241C41.3644 18.4063 41.2695 18.4578 41.2056 18.4059L33.5453 12.1819C33.5344 12.173 33.5258 12.162 33.5198 12.1497C33.5139 12.162 33.5052 12.1731 33.4944 12.1819L25.8529 18.3871Z" fill="#D9D95A"/>
<rect x="33.2266" y="26.7676" width="18.5598" height="0.6804" rx="0.3402" transform="rotate(-90 33.2266 26.7676)" fill="#004000"/>
<path fill-rule="evenodd" clip-rule="evenodd" d="M54.4824 21.8614L45.0016 18.297C41.7037 21.0376 41.1551 24.6413 43.3597 28.3011L43.3625 28.2995C45.4305 32.0282 48.8209 33.3726 52.8383 31.8886L54.4932 21.8732L54.5012 21.8685L54.4944 21.866L54.4965 21.8533L54.4824 21.8614Z" fill="#265C26"/>
<path fill-rule="evenodd" clip-rule="evenodd" d="M44.8914 18.5533C44.8145 18.5239 44.8117 18.416 44.8855 18.3794C52.1907 14.7597 56.0012 13.8941 63.6167 16.4228C63.6794 16.4436 63.6998 16.5171 63.6676 16.5658C63.7259 16.5621 63.7795 16.6166 63.7661 16.6813C62.1481 24.5413 59.4866 27.4334 52.6991 31.9505C52.6306 31.9961 52.5385 31.9397 52.5515 31.8584L54.1115 22.1124C54.1137 22.0986 54.1189 22.0856 54.1266 22.0743C54.1129 22.0753 54.0991 22.0734 54.086 22.0684L44.8914 18.5533Z" fill="#467446"/>
<rect x="41.3242" y="29.1321" width="18.5598" height="0.6804" rx="0.3402" transform="rotate(-30 41.3242 29.1321)" fill="#004000"/>
<path fill-rule="evenodd" clip-rule="evenodd" d="M13.1398 23.3319L14.7933 33.3251C18.8157 34.8109 22.2108 33.4841 24.2781 29.745L24.2748 29.743C26.4702 26.0877 25.9393 22.4792 22.6453 19.7419L13.1438 23.3166L13.1365 23.3124L13.1376 23.3189L13.1253 23.3235L13.1398 23.3319Z" fill="#265C26"/>
<path fill-rule="evenodd" clip-rule="evenodd" d="M15.0709 33.2921C15.0838 33.3734 14.9918 33.4298 14.9233 33.3842C8.13589 28.8675 5.48103 26.0003 3.86312 18.1408C3.8498 18.0761 3.90323 18.0216 3.9615 18.0252C3.92923 17.9765 3.94966 17.903 4.01236 17.8822C11.6283 15.3534 15.4637 16.2123 22.7694 19.8319C22.8431 19.8684 22.8403 19.9764 22.7634 20.0058L13.5431 23.5278C13.53 23.5328 13.5162 23.5347 13.5026 23.5338C13.5103 23.5451 13.5155 23.558 13.5177 23.5719L15.0709 33.2921Z" fill="#467446"/>
<rect x="26.0117" y="31.0989" width="18.5598" height="0.6804" rx="0.3402" transform="rotate(-150 26.0117 31.0989)" fill="#004000"/>
<path d="M95.3556 19.3767C94.7912 19.3767 94.3224 19.2708 93.9495 19.0592C93.5866 18.8475 93.3144 18.4997 93.133 18.0159C92.9516 17.522 92.8608 16.8718 92.8608 16.0654V13.6916C92.8608 13.5202 92.8608 13.3438 92.8608 13.1624C92.8709 12.9708 92.8911 12.7844 92.9213 12.6029C92.75 12.613 92.5685 12.6231 92.377 12.6332C92.1855 12.6332 92.0141 12.6382 91.8629 12.6483V11.8469H92.2258C92.7298 11.8469 93.1078 11.8016 93.3598 11.7108C93.6118 11.6201 93.7882 11.5244 93.889 11.4236H94.4636V16.0352C94.4636 16.8315 94.5744 17.4262 94.7962 17.8193C95.018 18.2124 95.3909 18.404 95.9151 18.3939C96.2578 18.3939 96.5854 18.2931 96.8979 18.0915C97.2204 17.8899 97.4825 17.653 97.6841 17.3808V13.7974C97.6841 13.5756 97.6892 13.369 97.6992 13.1775C97.7093 12.9759 97.7295 12.7844 97.7597 12.6029C97.5783 12.613 97.3918 12.6231 97.2003 12.6332C97.0088 12.6332 96.8324 12.6382 96.6711 12.6483V11.8469H97.1096C97.5531 11.8469 97.9008 11.8016 98.1528 11.7108C98.4048 11.6201 98.5863 11.5244 98.6972 11.4236H99.2717L99.2566 16.9877C99.2566 17.149 99.2516 17.3708 99.2415 17.653C99.2314 17.9252 99.2163 18.1671 99.1961 18.3788C99.3675 18.3687 99.5439 18.3586 99.7253 18.3485C99.9168 18.3384 100.093 18.3334 100.255 18.3334V19.1348H97.8504C97.8303 18.9735 97.8101 18.8223 97.79 18.6812C97.7799 18.54 97.7648 18.404 97.7446 18.2729C97.4321 18.5652 97.0692 18.8223 96.656 19.044C96.2427 19.2658 95.8092 19.3767 95.3556 19.3767ZM101.306 18.4997C101.608 18.4997 101.82 18.4292 101.941 18.288C102.062 18.1469 102.132 17.9504 102.152 17.6984C102.183 17.4464 102.198 17.154 102.198 16.8214V13.6764C102.198 13.5152 102.198 13.3438 102.198 13.1624C102.208 12.9708 102.228 12.7844 102.258 12.6029C102.087 12.613 101.905 12.6231 101.714 12.6332C101.522 12.6332 101.346 12.6382 101.185 12.6483V11.8469H101.699C102.122 11.8469 102.445 11.8016 102.666 11.7108C102.888 11.6201 103.049 11.5244 103.15 11.4236H103.695C103.715 11.5647 103.73 11.7612 103.74 12.0132C103.75 12.2652 103.76 12.5475 103.77 12.86C103.962 12.5777 104.183 12.3257 104.435 12.104C104.687 11.8721 104.96 11.6856 105.252 11.5445C105.554 11.4034 105.867 11.3328 106.189 11.3328C106.502 11.3328 106.769 11.4185 106.991 11.5899C107.223 11.7512 107.338 12.0183 107.338 12.3912C107.338 12.492 107.308 12.608 107.248 12.739C107.197 12.87 107.107 12.986 106.976 13.0868C106.855 13.1775 106.688 13.2228 106.477 13.2228C106.265 13.2128 106.078 13.1321 105.917 12.9809C105.766 12.8297 105.695 12.6231 105.706 12.361C105.464 12.361 105.222 12.4366 104.98 12.5878C104.738 12.7289 104.511 12.9204 104.299 13.1624C104.098 13.4043 103.926 13.6664 103.785 13.9486V17.2599C103.785 17.4413 103.78 17.6278 103.77 17.8193C103.77 18.0008 103.755 18.1872 103.725 18.3788C103.886 18.3687 104.052 18.3636 104.224 18.3636C104.395 18.3536 104.551 18.3435 104.692 18.3334V19.1348H101.306V18.4997ZM111.06 19.3767C110.808 19.3767 110.55 19.3414 110.288 19.2708C110.036 19.2104 109.805 19.0844 109.593 18.8928C109.381 18.6912 109.215 18.404 109.094 18.031C108.973 17.658 108.912 17.1641 108.912 16.5492L108.943 12.4215H107.824V11.5748C108.096 11.5647 108.373 11.4639 108.655 11.2724C108.938 11.0808 109.185 10.8238 109.396 10.5012C109.608 10.1787 109.754 9.83092 109.835 9.45796H110.545V11.5748H112.874V12.361L110.545 12.3912L110.515 16.4283C110.515 16.8113 110.545 17.149 110.606 17.4413C110.676 17.7236 110.787 17.9453 110.939 18.1066C111.1 18.2578 111.317 18.3334 111.589 18.3334C111.821 18.3334 112.057 18.2628 112.299 18.1217C112.551 17.9806 112.788 17.7488 113.01 17.4262L113.524 17.8798C113.282 18.2326 113.04 18.5098 112.798 18.7114C112.556 18.913 112.325 19.0592 112.103 19.1499C111.881 19.2507 111.679 19.3112 111.498 19.3313C111.317 19.3616 111.17 19.3767 111.06 19.3767ZM117.342 19.3767C116.777 19.3767 116.308 19.2708 115.935 19.0592C115.573 18.8475 115.3 18.4997 115.119 18.0159C114.938 17.522 114.847 16.8718 114.847 16.0654V13.6916C114.847 13.5202 114.847 13.3438 114.847 13.1624C114.857 12.9708 114.877 12.7844 114.907 12.6029C114.736 12.613 114.555 12.6231 114.363 12.6332C114.171 12.6332 114 12.6382 113.849 12.6483V11.8469H114.212C114.716 11.8469 115.094 11.8016 115.346 11.7108C115.598 11.6201 115.774 11.5244 115.875 11.4236H116.45V16.0352C116.45 16.8315 116.56 17.4262 116.782 17.8193C117.004 18.2124 117.377 18.404 117.901 18.3939C118.244 18.3939 118.571 18.2931 118.884 18.0915C119.206 17.8899 119.469 17.653 119.67 17.3808V13.7974C119.67 13.5756 119.675 13.369 119.685 13.1775C119.695 12.9759 119.715 12.7844 119.746 12.6029C119.564 12.613 119.378 12.6231 119.186 12.6332C118.995 12.6332 118.818 12.6382 118.657 12.6483V11.8469H119.096C119.539 11.8469 119.887 11.8016 120.139 11.7108C120.391 11.6201 120.572 11.5244 120.683 11.4236H121.258L121.243 16.9877C121.243 17.149 121.238 17.3708 121.227 17.653C121.217 17.9252 121.202 18.1671 121.182 18.3788C121.353 18.3687 121.53 18.3586 121.711 18.3485C121.903 18.3384 122.079 18.3334 122.241 18.3334V19.1348H119.836C119.816 18.9735 119.796 18.8223 119.776 18.6812C119.766 18.54 119.751 18.404 119.731 18.2729C119.418 18.5652 119.055 18.8223 118.642 19.044C118.229 19.2658 117.795 19.3767 117.342 19.3767ZM123.292 18.4997C123.594 18.4997 123.806 18.4292 123.927 18.288C124.048 18.1469 124.118 17.9504 124.138 17.6984C124.169 17.4464 124.184 17.154 124.184 16.8214V13.6764C124.184 13.5152 124.184 13.3438 124.184 13.1624C124.194 12.9708 124.214 12.7844 124.244 12.6029C124.073 12.613 123.891 12.6231 123.7 12.6332C123.508 12.6332 123.332 12.6382 123.171 12.6483V11.8469H123.685C124.108 11.8469 124.431 11.8016 124.652 11.7108C124.874 11.6201 125.035 11.5244 125.136 11.4236H125.681C125.701 11.5647 125.716 11.7612 125.726 12.0132C125.736 12.2652 125.746 12.5475 125.756 12.86C125.948 12.5777 126.169 12.3257 126.421 12.104C126.673 11.8721 126.946 11.6856 127.238 11.5445C127.54 11.4034 127.853 11.3328 128.175 11.3328C128.488 11.3328 128.755 11.4185 128.977 11.5899C129.209 11.7512 129.324 12.0183 129.324 12.3912C129.324 12.492 129.294 12.608 129.234 12.739C129.183 12.87 129.093 12.986 128.962 13.0868C128.841 13.1775 128.674 13.2228 128.463 13.2228C128.251 13.2128 128.064 13.1321 127.903 12.9809C127.752 12.8297 127.681 12.6231 127.692 12.361C127.45 12.361 127.208 12.4366 126.966 12.5878C126.724 12.7289 126.497 12.9204 126.285 13.1624C126.084 13.4043 125.912 13.6664 125.771 13.9486V17.2599C125.771 17.4413 125.766 17.6278 125.756 17.8193C125.756 18.0008 125.741 18.1872 125.711 18.3788C125.872 18.3687 126.038 18.3636 126.21 18.3636C126.381 18.3536 126.537 18.3435 126.678 18.3334V19.1348H123.292V18.4997ZM133.609 19.3767C132.904 19.3767 132.269 19.2154 131.704 18.8928C131.15 18.5602 130.711 18.0965 130.389 17.5018C130.066 16.897 129.905 16.1864 129.905 15.3699C129.905 14.6643 130.061 14.004 130.374 13.3892C130.696 12.7743 131.145 12.2804 131.719 11.9074C132.294 11.5244 132.959 11.3328 133.715 11.3328C134.138 11.3328 134.537 11.3984 134.91 11.5294C135.293 11.6604 135.63 11.8671 135.923 12.1493C136.225 12.4215 136.462 12.7793 136.633 13.2228C136.805 13.6563 136.89 14.1855 136.89 14.8104L131.689 14.9012C131.689 15.5866 131.765 16.1964 131.916 16.7307C132.077 17.2649 132.334 17.6782 132.687 17.9705C133.04 18.2628 133.498 18.409 134.063 18.409C134.335 18.409 134.622 18.3636 134.925 18.2729C135.237 18.1721 135.529 18.031 135.802 17.8496C136.084 17.6681 136.321 17.4514 136.512 17.1994L136.981 17.6076C136.679 18.0612 136.331 18.4191 135.938 18.6812C135.545 18.9332 135.141 19.1096 134.728 19.2104C134.325 19.3212 133.952 19.3767 133.609 19.3767ZM131.749 14.1149H135.242C135.242 13.7319 135.187 13.3892 135.076 13.0868C134.975 12.7743 134.814 12.5273 134.592 12.3459C134.37 12.1644 134.088 12.0737 133.745 12.0737C133.211 12.0737 132.773 12.2451 132.43 12.5878C132.087 12.9204 131.86 13.4295 131.749 14.1149Z" fill="#004300"/>
<path d="M85.6334 31.4192L74.3841 16.4806C74.1624 16.2186 73.9507 15.9464 73.7491 15.6642C73.5475 15.3819 73.3358 15.0896 73.1141 14.7872H73.0838L73.1745 26.5506C73.1745 27.0546 73.1645 27.5586 73.1443 28.0626C73.1443 28.5666 73.1241 29.0302 73.0838 29.4536C73.4265 29.4133 73.7995 29.3931 74.2027 29.3931C74.6261 29.373 74.9889 29.3528 75.2913 29.3326V30.9958H69.3038V29.6653C69.8683 29.6653 70.2917 29.5544 70.5739 29.3326C70.8763 29.1109 71.0779 28.8186 71.1787 28.4557C71.2997 28.0928 71.3601 27.6694 71.3601 27.1856V13.6381C71.3601 13.2349 71.3601 12.8317 71.3601 12.4285C71.3601 12.0253 71.3702 11.6725 71.3904 11.3701C71.0678 11.3902 70.7049 11.4104 70.3017 11.4306C69.9187 11.4507 69.576 11.4709 69.2736 11.491V9.82785H73.2653L83.9097 23.829C84.2525 24.2725 84.5549 24.6858 84.8169 25.0688C85.0992 25.4518 85.3713 25.8147 85.6334 26.1574H85.6637L85.6939 13.7288C85.6939 13.2853 85.704 12.8619 85.7241 12.4587C85.7443 12.0354 85.7645 11.6725 85.7846 11.3701C85.4217 11.3902 85.0387 11.4104 84.6355 11.4306C84.2323 11.4507 83.8795 11.4709 83.5771 11.491V9.82785H89.5646V11.1584C88.9195 11.1786 88.4457 11.3197 88.1433 11.5818C87.8611 11.8237 87.6797 12.1866 87.599 12.6704C87.5385 13.1341 87.5083 13.749 87.5083 14.515L87.4781 31.4192H85.6334ZM95.9037 30.9958C95.8835 30.8346 95.8684 30.6934 95.8583 30.5725C95.8482 30.4515 95.8331 30.3255 95.813 30.1945C95.4702 30.5372 95.1023 30.7993 94.7092 30.9807C94.3161 31.1521 93.9078 31.2378 93.4845 31.2378C92.7587 31.2378 92.2094 31.0614 91.8364 30.7086C91.4735 30.3457 91.2921 29.8971 91.2921 29.3629C91.2921 28.8992 91.4282 28.496 91.7003 28.1533C91.9725 27.8106 92.3303 27.5334 92.7738 27.3217C93.2174 27.0999 93.7012 26.9386 94.2254 26.8378C94.7495 26.727 95.2636 26.6715 95.7676 26.6715V25.7794C95.7676 25.4569 95.7374 25.1595 95.6769 24.8874C95.6164 24.6051 95.4904 24.3783 95.2989 24.207C95.1174 24.0255 94.8302 23.9348 94.437 23.9348C94.175 23.9247 93.9129 23.9751 93.6508 24.086C93.3887 24.1868 93.1871 24.3582 93.046 24.6001C93.1266 24.6807 93.177 24.7765 93.1972 24.8874C93.2274 24.9882 93.2426 25.0839 93.2426 25.1746C93.2426 25.3158 93.1821 25.477 93.0611 25.6585C92.9402 25.8298 92.7335 25.9105 92.4412 25.9004C92.1993 25.9004 92.0128 25.8198 91.8818 25.6585C91.7608 25.4871 91.7003 25.2906 91.7003 25.0688C91.7003 24.7059 91.8314 24.3834 92.0934 24.1011C92.3656 23.8189 92.7335 23.5971 93.1972 23.4358C93.6609 23.2746 94.18 23.1939 94.7546 23.1939C95.6214 23.1939 96.2666 23.4207 96.6899 23.8743C97.1234 24.3279 97.3401 25.0436 97.3401 26.0214C97.3401 26.3842 97.3401 26.732 97.3401 27.0646C97.3401 27.3973 97.335 27.7299 97.325 28.0626C97.325 28.3952 97.325 28.748 97.325 29.121C97.325 29.2722 97.3199 29.4435 97.3098 29.635C97.2998 29.8266 97.2846 30.0282 97.2645 30.2398C97.4358 30.2298 97.6122 30.2197 97.7937 30.2096C97.9751 30.1995 98.1465 30.1945 98.3078 30.1945V30.9958H95.9037ZM95.7676 27.367C95.445 27.3872 95.1124 27.4326 94.7697 27.5031C94.437 27.5737 94.1346 27.6795 93.8625 27.8206C93.5903 27.9618 93.3686 28.1432 93.1972 28.365C93.0359 28.5867 92.9553 28.8538 92.9553 29.1663C92.9754 29.509 93.0863 29.761 93.2879 29.9223C93.4996 30.0836 93.7466 30.1642 94.0288 30.1642C94.3816 30.1642 94.6941 30.0987 94.9662 29.9677C95.2384 29.8266 95.5055 29.635 95.7676 29.3931C95.7575 29.2822 95.7525 29.1714 95.7525 29.0605C95.7525 28.9395 95.7525 28.8135 95.7525 28.6825C95.7525 28.5918 95.7525 28.4254 95.7525 28.1835C95.7626 27.9315 95.7676 27.6594 95.7676 27.367ZM102.083 31.2378C101.831 31.2378 101.574 31.2025 101.312 31.1319C101.06 31.0714 100.828 30.9454 100.617 30.7539C100.405 30.5523 100.239 30.265 100.118 29.8921C99.9966 29.5191 99.9361 29.0252 99.9361 28.4103L99.9664 24.2826H98.8475V23.4358C99.1196 23.4258 99.3968 23.325 99.6791 23.1334C99.9613 22.9419 100.208 22.6849 100.42 22.3623C100.632 22.0398 100.778 21.692 100.858 21.319H101.569V23.4358H103.898V24.2221L101.569 24.2523L101.539 28.2894C101.539 28.6724 101.569 29.0101 101.63 29.3024C101.7 29.5846 101.811 29.8064 101.962 29.9677C102.123 30.1189 102.34 30.1945 102.612 30.1945C102.844 30.1945 103.081 30.1239 103.323 29.9828C103.575 29.8417 103.812 29.6098 104.034 29.2873L104.548 29.7409C104.306 30.0937 104.064 30.3709 103.822 30.5725C103.58 30.7741 103.348 30.9202 103.126 31.011C102.905 31.1118 102.703 31.1722 102.522 31.1924C102.34 31.2226 102.194 31.2378 102.083 31.2378ZM108.365 31.2378C107.801 31.2378 107.332 31.1319 106.959 30.9202C106.596 30.7086 106.324 30.3608 106.143 29.877C105.961 29.383 105.87 28.7329 105.87 27.9265V25.5526C105.87 25.3813 105.87 25.2049 105.87 25.0234C105.881 24.8319 105.901 24.6454 105.931 24.464C105.76 24.4741 105.578 24.4842 105.387 24.4942C105.195 24.4942 105.024 24.4993 104.873 24.5094V23.708H105.235C105.739 23.708 106.117 23.6626 106.369 23.5719C106.621 23.4812 106.798 23.3854 106.899 23.2846H107.473V27.8962C107.473 28.6926 107.584 29.2873 107.806 29.6804C108.028 30.0735 108.401 30.265 108.925 30.255C109.267 30.255 109.595 30.1542 109.908 29.9526C110.23 29.751 110.492 29.5141 110.694 29.2419V25.6585C110.694 25.4367 110.699 25.2301 110.709 25.0386C110.719 24.837 110.739 24.6454 110.769 24.464C110.588 24.4741 110.401 24.4842 110.21 24.4942C110.018 24.4942 109.842 24.4993 109.681 24.5094V23.708H110.119C110.563 23.708 110.91 23.6626 111.162 23.5719C111.414 23.4812 111.596 23.3854 111.707 23.2846H112.281L112.266 28.8488C112.266 29.0101 112.261 29.2318 112.251 29.5141C112.241 29.7862 112.226 30.0282 112.206 30.2398C112.377 30.2298 112.554 30.2197 112.735 30.2096C112.926 30.1995 113.103 30.1945 113.264 30.1945V30.9958H110.86C110.84 30.8346 110.82 30.6834 110.8 30.5422C110.79 30.4011 110.774 30.265 110.754 30.134C110.442 30.4263 110.079 30.6834 109.666 30.9051C109.252 31.1269 108.819 31.2378 108.365 31.2378ZM114.315 30.3608C114.618 30.3608 114.829 30.2902 114.95 30.1491C115.071 30.008 115.142 29.8114 115.162 29.5594C115.192 29.3074 115.207 29.0151 115.207 28.6825V25.5375C115.207 25.3762 115.207 25.2049 115.207 25.0234C115.217 24.8319 115.238 24.6454 115.268 24.464C115.096 24.4741 114.915 24.4842 114.723 24.4942C114.532 24.4942 114.356 24.4993 114.194 24.5094V23.708H114.708C115.132 23.708 115.454 23.6626 115.676 23.5719C115.898 23.4812 116.059 23.3854 116.16 23.2846H116.704C116.724 23.4258 116.739 23.6223 116.75 23.8743C116.76 24.1263 116.77 24.4086 116.78 24.721C116.971 24.4388 117.193 24.1868 117.445 23.965C117.697 23.7332 117.969 23.5467 118.262 23.4056C118.564 23.2645 118.876 23.1939 119.199 23.1939C119.511 23.1939 119.779 23.2796 120 23.451C120.232 23.6122 120.348 23.8794 120.348 24.2523C120.348 24.3531 120.318 24.469 120.257 24.6001C120.207 24.7311 120.116 24.847 119.985 24.9478C119.864 25.0386 119.698 25.0839 119.486 25.0839C119.275 25.0738 119.088 24.9932 118.927 24.842C118.776 24.6908 118.705 24.4842 118.715 24.2221C118.473 24.2221 118.231 24.2977 117.989 24.4489C117.747 24.59 117.521 24.7815 117.309 25.0234C117.107 25.2654 116.936 25.5274 116.795 25.8097V29.121C116.795 29.3024 116.79 29.4889 116.78 29.6804C116.78 29.8618 116.765 30.0483 116.734 30.2398C116.896 30.2298 117.062 30.2247 117.233 30.2247C117.405 30.2146 117.561 30.2046 117.702 30.1945V30.9958H114.315V30.3608ZM124.633 31.2378C123.927 31.2378 123.292 31.0765 122.728 30.7539C122.173 30.4213 121.735 29.9576 121.412 29.3629C121.09 28.7581 120.928 28.0474 120.928 27.231C120.928 26.5254 121.085 25.8651 121.397 25.2502C121.72 24.6354 122.168 24.1414 122.743 23.7685C123.317 23.3854 123.983 23.1939 124.739 23.1939C125.162 23.1939 125.56 23.2594 125.933 23.3905C126.316 23.5215 126.654 23.7282 126.946 24.0104C127.249 24.2826 127.486 24.6404 127.657 25.0839C127.828 25.5174 127.914 26.0466 127.914 26.6715L122.713 26.7622C122.713 27.4477 122.788 28.0575 122.939 28.5918C123.101 29.126 123.358 29.5393 123.711 29.8316C124.063 30.1239 124.522 30.2701 125.086 30.2701C125.359 30.2701 125.646 30.2247 125.948 30.134C126.261 30.0332 126.553 29.8921 126.825 29.7106C127.108 29.5292 127.344 29.3125 127.536 29.0605L128.005 29.4687C127.702 29.9223 127.354 30.2802 126.961 30.5422C126.568 30.7942 126.165 30.9706 125.752 31.0714C125.349 31.1823 124.976 31.2378 124.633 31.2378ZM122.773 25.976H126.266C126.266 25.593 126.21 25.2502 126.1 24.9478C125.999 24.6354 125.837 24.3884 125.616 24.207C125.394 24.0255 125.112 23.9348 124.769 23.9348C124.235 23.9348 123.796 24.1062 123.454 24.4489C123.111 24.7815 122.884 25.2906 122.773 25.976Z" fill="#004300"/>
</svg>
