<svg width="22" height="22" viewBox="0 0 22 22" fill="none" xmlns="http://www.w3.org/2000/svg">
<path d="M20.8 20.8L16.0228 16.0228M16.0228 16.0228C16.8399 15.2056 17.4881 14.2355 17.9304 13.1678C18.3726 12.1001 18.6003 10.9558 18.6003 9.80013C18.6003 8.64448 18.3726 7.50014 17.9304 6.43246C17.4881 5.36478 16.8399 4.39466 16.0228 3.5775C15.2056 2.76033 14.2355 2.11212 13.1678 1.66987C12.1001 1.22762 10.9558 1 9.80013 1C8.64448 1 7.50014 1.22762 6.43246 1.66987C5.36478 2.11212 4.39466 2.76033 3.5775 3.5775C1.92715 5.22784 1 7.46619 1 9.80013C1 12.1341 1.92715 14.3724 3.5775 16.0228C5.22784 17.6731 7.46619 18.6003 9.80013 18.6003C12.1341 18.6003 14.3724 17.6731 16.0228 16.0228Z" stroke="#778082" stroke-width="1.8" stroke-linecap="round" stroke-linejoin="round"/>
</svg>
