<svg width="25" height="21" viewBox="0 0 25 21" fill="none" xmlns="http://www.w3.org/2000/svg">
<path d="M7.85313 20.5C17.2875 20.5 22.4484 12.8035 22.4484 6.14077C22.4505 5.92437 22.4474 5.70797 22.4391 5.49157C23.4435 4.77506 24.3106 3.8885 25 2.87325C24.0611 3.2798 23.0666 3.54829 22.0484 3.67013C23.1212 3.03894 23.9247 2.04562 24.3094 0.874893C23.302 1.46366 22.1987 1.87639 21.0484 2.09483C20.2753 1.28414 19.2522 0.74708 18.1376 0.566844C17.0231 0.386607 15.8793 0.573249 14.8833 1.09786C13.8874 1.62247 13.095 2.45578 12.6288 3.46869C12.1626 4.48161 12.0487 5.61761 12.3047 6.70074C10.2651 6.60053 8.26976 6.0791 6.44817 5.1703C4.62658 4.26151 3.01949 2.98567 1.73125 1.42563C1.07747 2.5381 0.878047 3.85379 1.17345 5.10572C1.46885 6.35765 2.23695 7.45204 3.32187 8.16681C2.50845 8.14093 1.7128 7.92585 1 7.53915V7.60838C1.00199 8.77352 1.41222 9.9023 2.16144 10.8042C2.91067 11.7061 3.953 12.3259 5.1125 12.5589C4.6723 12.6783 4.21755 12.7379 3.76094 12.7358C3.43894 12.7391 3.11745 12.7097 2.80156 12.6481C3.12874 13.6516 3.76684 14.529 4.62631 15.1573C5.48577 15.7855 6.52347 16.133 7.59375 16.151C5.77516 17.5555 3.53007 18.3178 1.21875 18.3155C0.811404 18.3185 0.404291 18.2954 0 18.2463C2.34597 19.7192 5.07073 20.5012 7.85313 20.5Z" fill="#111111"/>
</svg>
