<svg width="22" height="22" viewBox="0 0 22 22" fill="none" xmlns="http://www.w3.org/2000/svg">
<path d="M1.19922 18.325C1.19922 17.0122 1.72073 15.7531 2.64904 14.8248C3.57734 13.8965 4.8364 13.375 6.14922 13.375H16.0492C17.362 13.375 18.6211 13.8965 19.5494 14.8248C20.4777 15.7531 20.9992 17.0122 20.9992 18.325C20.9992 18.9814 20.7385 19.6109 20.2743 20.0751C19.8102 20.5392 19.1806 20.8 18.5242 20.8H3.67422C3.01781 20.8 2.38828 20.5392 1.92413 20.0751C1.45998 19.6109 1.19922 18.9814 1.19922 18.325Z" stroke="#778082" stroke-width="1.8" stroke-linejoin="round"/>
<path d="M11.0992 8.425C13.1496 8.425 14.8117 6.76286 14.8117 4.7125C14.8117 2.66214 13.1496 1 11.0992 1C9.04886 1 7.38672 2.66214 7.38672 4.7125C7.38672 6.76286 9.04886 8.425 11.0992 8.425Z" stroke="#778082" stroke-width="1.8"/>
</svg>
