<svg width="25" height="19" viewBox="0 0 25 19" fill="none" xmlns="http://www.w3.org/2000/svg">
<g clip-path="url(#clip0_297_1164)">
<path d="M10.3467 13.3982L16.9666 9.57164L10.3467 5.74511V13.3982ZM25.0916 3.41092C25.2574 4.01041 25.3722 4.81398 25.4487 5.83439C25.538 6.8548 25.5763 7.7349 25.5763 8.50021L25.6528 9.57164C25.6528 12.365 25.4487 14.4186 25.0916 15.7324C24.7727 16.8803 24.0329 17.6201 22.8849 17.939C22.2854 18.1048 21.1885 18.2196 19.5048 18.2961C17.8467 18.3854 16.3288 18.4237 14.9257 18.4237L12.8977 18.5002C7.55329 18.5002 4.22421 18.2961 2.91044 17.939C1.76248 17.6201 1.02268 16.8803 0.703803 15.7324C0.537986 15.1329 0.423191 14.3293 0.34666 13.3089C0.257374 12.2885 0.219109 11.4084 0.219109 10.6431L0.142578 9.57164C0.142578 6.77827 0.34666 4.7247 0.703803 3.41092C1.02268 2.26296 1.76248 1.52317 2.91044 1.20429C3.50993 1.03847 4.60686 0.923678 6.29054 0.847148C7.9487 0.757862 9.46656 0.719597 10.8696 0.719597L12.8977 0.643066C18.2421 0.643066 21.5712 0.847148 22.8849 1.20429C24.0329 1.52317 24.7727 2.26296 25.0916 3.41092Z" fill="#111111"/>
</g>
<defs>
<clipPath id="clip0_297_1164">
<rect width="25" height="17.8571" fill="white" transform="translate(0 0.571533)"/>
</clipPath>
</defs>
</svg>
